<svg xmlns="http://www.w3.org/2000/svg" width="47.914" height="47.914" viewBox="0 0 47.914 47.914">
  <path id="Icon_awesome-check-circle" data-name="Icon awesome-check-circle" d="M48.477,24.52A23.957,23.957,0,1,1,24.52.563,23.957,23.957,0,0,1,48.477,24.52ZM21.748,37.2,39.523,19.43a1.546,1.546,0,0,0,0-2.186l-2.186-2.186a1.546,1.546,0,0,0-2.186,0l-14.5,14.5-6.768-6.768a1.546,1.546,0,0,0-2.186,0L9.516,24.972a1.546,1.546,0,0,0,0,2.186L19.563,37.2A1.546,1.546,0,0,0,21.748,37.2Z" transform="translate(-0.563 -0.563)" fill="#a9a9a9"/>
</svg>
