<?xml version="1.0" encoding="UTF-8"?>
<!-- Generator: Adobe Illustrator 22.0.1, SVG Export Plug-In . SVG Version: 6.00 Build 0)  -->
<svg xmlns="http://www.w3.org/2000/svg" xmlns:xlink="http://www.w3.org/1999/xlink" xmlns:dc="http://purl.org/dc/elements/1.1/" xmlns:cc="http://creativecommons.org/ns#" xmlns:rdf="http://www.w3.org/1999/02/22-rdf-syntax-ns#" version="1.1" id="designs" x="0px" y="0px" width="32px" height="32px" viewBox="0 0 32 32" style="enable-background:new 0 0 32 32;" xml:space="preserve">
<title property="dc:title">to load</title><desc property="dc:description">An icon for "load" from the Science and Fiction series on to [icon]. Downloaded from http://www.toicon.com/icons/science-and-fiction_load by 181.59.57.126 on 2018-02-07. Licensed CC-BY, see http://toicon.com/license/ for details.</desc>
<path class="scienceandfiction_een" d="M24,12V7h1V4H7v3h1v5l6,4v1l-6,4v5H7v3h18v-3h-1v-5l-5-4v-1L24,12z M8,5h16v1H8V5z M24,28H8  v-1h16V28z M23,21.481V26H9v-4.465l6-4v-2.07l-6-4V7h14v4.519l-5,4v1.961L23,21.481z" style="fill: #2B4099;"/>
<path class="scienceandfiction_twee" d="M11,25v1h-1v-1H11L11,25z M11,23h-1v1h1V23L11,23z M13,25h-1v1h1V25L13,25z M15,25h-1v1h1  V25L15,25z M17,25h-1v1h1V25L17,25z M19,25h-1v1h1V25L19,25z M12,24h-1v1h1V24L12,24z M10,24H9v1h1V24L10,24z M14,24h-1v1h1V24  L14,24z M16,24h-1v1h1V24L16,24z M18,24h-1v1h1V24L18,24z M15,23h-1v1h1V23L15,23z M17,23h-1v1h1V23L17,23z M16,22h-1v1h1V22L16,22z   M18,22h-1v1h1V22L18,22z M19,23h-1v1h1V23L19,23z M21,25h-1v1h1V25L21,25z M23,25h-1v1h1V25L23,25z M20,24h-1v1h1V24L20,24z M22,24  h-1v1h1V24L22,24z M20,22h-1v1h1V22L20,22z M21,23h-1v1h1V23L21,23z M19,21h-1v1h1V21L19,21z M16,14h-1v1h1V14L16,14z M17,13h-1v1h1  V13L17,13z M17,15h-1v1h1V15L17,15z M18,14h-1v1h1V14L18,14z" style="fill: #CC2954;"/>
<metadata><work rdf:about=""><format>image/svg+xml</format><type rdf:resource="http://purl.org/dc/dcmitype/StillImage"/><license rdf:resource="http://creativecommons.org/licenses/by/4.0/"/><attributionname>Kamila Piątkowska</attributionname><attributionurl>http://www.toicon.com/icons/science-and-fiction_load</attributionurl></work></metadata></svg>
